<svg viewBox="0 0 200 200" width="80" height="80" xmlns="http://www.w3.org/2000/svg">
  <defs>
    <linearGradient id="globeGrad" x1="0%" y1="0%" x2="100%" y2="100%">
      <stop offset="0%" stop-color="#3b82f6" />
      <stop offset="100%" stop-color="#1d4ed8" />
    </linearGradient>
    <linearGradient id="gridGrad" x1="0%" y1="0%" x2="100%" y2="100%">
      <stop offset="0%" stop-color="#ffffff" stop-opacity="0.8" />
      <stop offset="100%" stop-color="#93c5fd" stop-opacity="0.3" />
    </linearGradient>
  </defs>
  <circle cx="100" cy="100" r="80" fill="url(#globeGrad)" />
  <path d="M 100 20 Q 50 100 100 180" fill="none" stroke="url(#gridGrad)" stroke-width="3" />
  <path d="M 100 20 Q 150 100 100 180" fill="none" stroke="url(#gridGrad)" stroke-width="3" />
  <path d="M 100 20 Q 10 100 100 180" fill="none" stroke="url(#gridGrad)" stroke-width="1.5" stroke-dasharray="3,3" />
  <path d="M 100 20 Q 190 100 100 180" fill="none" stroke="url(#gridGrad)" stroke-width="1.5" stroke-dasharray="3,3" />
  <line x1="100" y1="20" x2="100" y2="180" stroke="url(#gridGrad)" stroke-width="2" />
  <line x1="20" y1="100" x2="180" y2="100" stroke="url(#gridGrad)" stroke-width="2.5" />
  <path d="M 30 70 Q 100 90 170 70" fill="none" stroke="url(#gridGrad)" stroke-width="2" />
  <path d="M 30 130 Q 100 110 170 130" fill="none" stroke="url(#gridGrad)" stroke-width="2" />
  <path d="M 45 45 Q 100 65 155 45" fill="none" stroke="url(#gridGrad)" stroke-width="1.5" />
  <path d="M 45 155 Q 100 135 155 155" fill="none" stroke="url(#gridGrad)" stroke-width="1.5" />
  <text x="100" y="112" font-family="'Inter', sans-serif" font-size="36" font-weight="900" fill="#ffffff" text-anchor="middle" style="letter-spacing: -2px;">W</text>
</svg>
